<?xml version="1.0" standalone="no"?>
<!DOCTYPE svg PUBLIC "-//W3C//DTD SVG 20010904//EN"
 "http://www.w3.org/TR/2001/REC-SVG-20010904/DTD/svg10.dtd">
<svg version="1.0" xmlns="http://www.w3.org/2000/svg"
 width="82.000000pt" height="82.000000pt" viewBox="0 0 82.000000 82.000000"
 preserveAspectRatio="xMidYMid meet">
<metadata>
Created by potrace 1.14, written by Peter Selinger 2001-2017
</metadata>
<g transform="translate(0.000000,82.000000) scale(0.100000,-0.100000)"
fill="#000000" stroke="none">
<path d="M460 767 c-19 -4 -44 -8 -55 -8 -18 0 -20 -6 -20 -52 2 -69 -2 -79
-25 -67 -24 13 -66 13 -91 0 -68 -37 -62 -197 12 -271 19 -19 19 -19 -33 -20
-108 -1 -133 -16 -133 -79 0 -26 -4 -40 -12 -40 -13 0 -17 -17 -14 -53 2 -12
-5 -17 -23 -17 -26 0 -26 -1 -26 -73 l0 -72 378 0 377 0 0 70 0 70 -32 3 c-32
3 -39 16 -34 59 1 8 -11 13 -33 13 -59 0 -87 69 -35 85 10 4 19 13 19 20 0 10
-14 14 -47 13 -121 -1 -149 2 -130 13 11 6 30 34 43 63 51 110 20 226 -63 226
-19 0 -43 -5 -54 -10 -14 -8 -19 -7 -19 3 0 7 15 18 34 25 35 13 60 54 54 89
-3 16 -8 18 -38 10z m11 -46 c-12 -22 -49 -46 -58 -38 -12 12 10 46 35 55 33
11 37 9 23 -17z m-117 -106 c36 -19 48 -19 84 2 45 26 83 9 100 -42 35 -106
-68 -263 -131 -200 -13 13 -16 13 -27 0 -43 -52 -125 33 -137 141 -9 89 42
135 111 99z m261 -337 l0 -48 -227 0 c-220 0 -227 1 -242 21 -17 25 -4 66 22
71 9 2 113 3 231 3 l216 0 0 -47z m-435 -95 c0 -20 -5 -23 -35 -23 -30 0 -35
3 -35 23 0 21 5 24 35 23 29 -1 35 -5 35 -23z m50 -4 c0 -10 -6 -19 -13 -19
-11 0 -15 23 -8 48 3 12 21 -13 21 -29z m50 0 c0 -10 -7 -19 -15 -19 -16 0
-19 9 -9 34 8 20 24 11 24 -15z m424 13 c18 -29 -13 -35 -191 -34 -228 0 -213
-1 -213 20 0 10 2 21 4 23 3 2 92 4 198 4 153 1 195 -2 202 -13z m-504 -61 c3
0 6 -20 5 -43 l0 -43 -71 -3 -71 -3 -1 48 -2 48 67 -1 c38 -1 70 -2 73 -3z
m571 -3 c3 -5 5 -25 4 -46 l-1 -37 -272 -3 -272 -2 0 44 c0 24 5 46 10 48 22
7 525 3 531 -4z"/>
<path d="M360 506 c0 -19 5 -38 10 -41 10 -6 12 0 12 35 0 34 -2 40 -12 40 -5
0 -10 -15 -10 -34z"/>
<path d="M408 500 c5 -48 22 -43 22 6 0 21 -5 34 -13 34 -9 0 -11 -12 -9 -40z"/>
<path d="M114 95 c-4 -9 -2 -21 3 -26 14 -14 45 1 41 20 -4 22 -37 26 -44 6z"/>
<path d="M610 91 c0 -6 5 -13 10 -16 6 -3 10 1 10 9 0 9 -4 16 -10 16 -5 0
-10 -4 -10 -9z"/>
<path d="M660 84 c0 -8 5 -12 10 -9 6 3 10 10 10 16 0 5 -4 9 -10 9 -5 0 -10
-7 -10 -16z"/>
<path d="M706 85 c4 -8 10 -12 15 -9 14 8 10 24 -6 24 -9 0 -12 -6 -9 -15z"/>
</g>
</svg>
